<?xml version="1.0" encoding="UTF-8"?>
<!DOCTYPE svg PUBLIC "-//W3C//DTD SVG 1.1//EN" "http://www.w3.org/Graphics/SVG/1.1/DTD/svg11.dtd">
<!-- Creator: CorelDRAW -->
<svg xmlns="http://www.w3.org/2000/svg" xml:space="preserve" width="148.652mm" height="116.129mm" version="1.1" style="shape-rendering:geometricPrecision; text-rendering:geometricPrecision; image-rendering:optimizeQuality; fill-rule:evenodd; clip-rule:evenodd"
viewBox="0 0 4995.83 3902.8"
 xmlns:xlink="http://www.w3.org/1999/xlink"
 xmlns:xodm="http://www.corel.com/coreldraw/odm/2003">
 <defs>
  <style type="text/css">
   <![CDATA[
    .fil0 {fill:#002536;fill-opacity:0.501961}
   ]]>
  </style>
 </defs>
 <g id="Camada_x0020_1">
  <metadata id="CorelCorpID_0Corel-Layer"/>
  <path class="fil0" d="M4278.32 2841.56l-2726.51 18.46c-351.64,0 -581.25,-16.33 -897.93,-16.33 -27.91,41.68 -44.03,32.43 -46.68,82.1 -6.91,129.06 182.32,114.37 258.81,113.92 557.32,-3.25 3348.89,-20.95 3444.89,16.13 44.82,-42.05 47.17,-47.53 97.96,-81.55 0,-68.42 4.5,-51.2 -16.33,-98.03 -56.78,-40.27 -29.52,-32.99 -114.2,-34.71zm-522.51 -889.44c-75.23,44.16 -115.51,58.15 -152.38,151.68 -54.47,138.16 7.96,139.33 -8.41,233.79 145.48,51.19 17.78,50.67 275.61,49.56 260.04,-1.12 548.91,-10.28 621.1,-260.98 21.98,-76.28 14.73,-173.39 -29.75,-233.62 -52.21,-70.68 -110.51,-55.21 -213.34,-42.14 -167.51,21.29 -330.65,61.69 -492.82,101.71zm-603.14 107.01c-313.55,-0.64 -1287.94,-19.57 -1456.12,17.25 -31.5,186.71 27.42,248.34 184.34,291.29 135.19,37.01 799.31,18 993.43,19.01 222.27,1.15 253.65,-17.07 391.71,-95.51 34.79,-71.86 48.98,-73.63 48.98,-182.14 -57.23,-38.32 -62.34,-49.69 -162.34,-49.9zm-1766.41 69.32c-61.64,-193.39 -270.65,-206.47 -486.08,-249.4 -71.67,-14.28 -260.22,-54.04 -311.78,-33.42 -85.66,34.26 -120.53,141.37 -97.78,263.4 47.74,256.08 290.09,248.21 472.49,262.18 87.5,6.7 260.85,41.39 344.6,-0.17 78.73,-39.07 110.23,-143.18 78.55,-242.6zm2413.81 -1386.08c-113.64,-265.81 -168.47,-362.32 -338.85,-396.3 -466.1,-92.94 -1380.3,-0.25 -1909.5,-0.25 -111.05,46.63 -164.32,44.68 -226.08,133.01 -61.11,87.39 -306.1,637.89 -312.59,715.94l130.69 0c237.88,-37.54 2079.3,-14.05 2514.33,-16.55 128.92,-0.73 203.48,16.55 342.62,16.55 -39.23,-74.15 -63.67,-149.51 -98.38,-228.14 -32.96,-74.65 -69.5,-147.67 -102.25,-224.27zm-3130.79 367.8c-163.79,0 89.21,-287.9 -310.09,-285.07 -70.04,0.49 -201.13,2.05 -257.38,44.12 -170.44,127.48 -109.7,387.58 55.47,442.74 97.4,32.53 284.08,10.44 397.71,10.44 -69.94,60.79 -21.19,-3.35 -159.19,134.68 -59.65,59.67 -96.72,91.47 -140.19,170 -154.52,279.2 -108.77,757.48 -108.77,1132 0,194.74 3.04,370.16 98.2,522.19 30.32,48.44 65.04,65.74 97.71,114.53l-146.94 -16.33 0 293.87c0,107.96 120.6,228.56 228.56,228.56l489.78 0c101.95,0 228.56,-126.61 228.56,-228.56l0 -293.87 2726.44 0c0,106.98 -88.66,522.43 244.89,522.43 666.9,0 702.01,46.13 702.01,-522.43l-130.61 0c62.39,-93.18 118.1,-113.22 154.33,-286.47 55.31,-264.53 34.42,-1167.87 -46.24,-1372.58 -100.19,-254.23 -291.48,-336.36 -336.65,-398.02 111.54,0 266.52,22.65 364.93,-10.57 285.38,-96.32 177.47,-479.21 -22.09,-479.21 -200.57,0 -356.58,-36.49 -387.78,85.68 -12.38,48.5 -7.01,118.18 -20.37,175.54 -38.44,8.96 -48.22,15.22 -97.96,16.33 -31.37,-134.67 -297.28,-716.59 -356.66,-802.48 -178.15,-257.69 -440.96,-307.68 -867.79,-307.68l-1142.82 0c-817.23,0 -890.12,227.62 -1186.57,1017.44 -18.94,50.46 -18.78,92.73 -70.53,92.73z"/>
 </g>
</svg>
